<svg aria-hidden="true" style="position: absolute; width: 0; height: 0; overflow: hidden;" version="1.1" xmlns="http://www.w3.org/2000/svg" xmlns:xlink="http://www.w3.org/1999/xlink">
<defs>
<symbol id="icon-logo" viewBox="0 0 32 32">
<path  d="M0 16c0-8.836 7.163-16 16-16h16v16c0 8.837-7.163 16-16 16h-16v-16z"></path>
<path fill="#1ebb92" style="fill: var(--color2, #1ebb92)" d="M27 16c0 1.657-1.343 3-3 3h-2c-1.657 0-3-1.343-3-3s1.343-3 3-3h2c1.657 0 3 1.343 3 3z"></path>
<path fill="#fff" style="fill: var(--color3, #fff)" d="M12.906 8.094c0-1.709 1.385-3.094 3.094-3.094s3.094 1.385 3.094 3.094v4.813h0.021c-0.858 0.758-1.396 1.86-1.396 3.089 0 0.002 0 0.003 0 0.005v-0c0 0.002 0 0.003 0 0.005 0 1.228 0.538 2.331 1.392 3.085l0.004 0.004h-0.021v4.812c0 1.709-1.385 3.094-3.094 3.094s-3.094-1.385-3.094-3.094v0-4.812h-4.813c-1.709 0-3.094-1.385-3.094-3.094s1.385-3.094 3.094-3.094v0h4.813v-4.813z"></path>
</symbol>
<symbol id="icon-burger" viewBox="0 0 48 32">
<path d="M0 5.334v-5.334h48v5.334h-48zM0 18.666h48v-5.332h-48v5.332zM0 32h48v-5.334h-48v5.334z"></path>
</symbol>
<symbol id="icon-telegram" viewBox="0 0 32 32">
<path d="M32 0l-32 18 10.227 3.787 15.773-14.787-11.997 16.187 0.009 0.003-0.012-0.003v8.813l5.735-6.691 7.267 2.691 4.999-28z"></path>
</symbol>
<symbol id="icon-close" viewBox="0 0 32 32">
<path d="M32 3.223l-3.223-3.223-12.777 12.777-12.777-12.777-3.223 3.223 12.777 12.777-12.777 12.777 3.223 3.223 12.777-12.777 12.777 12.777 3.223-3.223-12.777-12.777 12.777-12.777z"></path>
</symbol>
<symbol id="icon-viber" viewBox="0 0 32 32">
<path fill="#7d529c" style="fill: var(--color1, #7d529c)" d="M5.627 26.433c-0.708-0.693-1.324-1.461-1.87-2.284-1.058-1.597-1.772-3.339-2.148-5.215-0.13-0.652-0.213-1.31-0.252-1.973-0.041-0.687-0.044-1.372 0.012-2.056 0.216-2.649 1.064-5.081 2.596-7.259 2.089-2.969 4.898-4.919 8.406-5.855 0.773-0.207 1.564-0.329 2.364-0.403 0.67-0.062 1.342-0.077 2.012-0.044 2.815 0.145 5.384 1.013 7.704 2.619 0.714 0.495 1.378 1.055 1.997 1.668 0.018 0.018 0.030 0.039 0.044 0.056-0.018 0.074-0.077 0.113-0.127 0.16-1.23 1.23-2.459 2.462-3.692 3.689-0.047 0.047-0.083 0.092-0.098 0.157-0.083 0.003-0.098-0.080-0.151-0.116-1.378-1.396-3.031-2.255-4.972-2.542-0.471-0.071-0.948-0.133-1.428-0.124-0.136 0.003-0.255 0.039-0.353 0.13-0.13 0.119-0.175 0.299-0.107 0.459 0.074 0.172 0.204 0.276 0.397 0.279 0.43 0.009 0.859 0.039 1.283 0.098 0.551 0.080 1.093 0.21 1.621 0.4 0.907 0.32 1.704 0.818 2.436 1.437 0.065 0.053 0.121 0.116 0.181 0.175 0.121 0.145 0.281 0.258 0.391 0.415-0.080 0.139-0.201 0.24-0.323 0.338-0.11 0.092-0.204 0.199-0.311 0.293-0.059 0.050-0.053 0.124-0.089 0.181-0.062 0.003-0.086-0.050-0.121-0.086-0.833-0.898-1.87-1.416-3.049-1.686-0.376-0.086-0.759-0.133-1.141-0.178-0.21-0.024-0.388 0.041-0.492 0.231-0.080 0.151-0.077 0.314 0.030 0.462 0.077 0.107 0.187 0.157 0.317 0.172 0.35 0.036 0.696 0.077 1.040 0.151 0.853 0.187 1.636 0.519 2.299 1.099 0.116 0.121 0.234 0.237 0.353 0.356 0.027 0.027 0.065 0.047 0.065 0.092-0.255 0.24-0.48 0.51-0.756 0.729-0.015 0.003-0.030 0-0.044-0.003-0.216-0.219-0.441-0.421-0.717-0.566-0.504-0.267-1.040-0.391-1.609-0.382-0.181 0.003-0.32 0.133-0.361 0.317-0.044 0.204 0.033 0.385 0.207 0.477 0.098 0.050 0.204 0.065 0.314 0.074 0.436 0.033 0.844 0.136 1.212 0.388 0.116 0.080 0.213 0.175 0.302 0.281 0.021 0.033 0.036 0.065 0.030 0.107-1.215 1.215-2.421 2.439-3.647 3.639-0.498 0.486-0.99 0.978-1.484 1.467-0.101-0.021-0.133-0.121-0.207-0.172-0.409-0.453-0.753-0.951-1.055-1.479-0.287-0.501-0.53-1.025-0.717-1.576-0.169-0.504-0.047-0.93 0.359-1.274 0.222-0.19 0.459-0.359 0.681-0.545 0.4-0.335 0.53-0.767 0.459-1.271-0.053-0.37-0.273-0.664-0.45-0.975-0.542-0.945-1.233-1.787-1.923-2.625-0.364-0.441-0.96-0.56-1.52-0.252-0.83 0.453-1.544 1.052-2.036 1.876-0.317 0.53-0.394 1.087-0.175 1.701 0.308 0.853 0.673 1.677 1.084 2.48 0.533 1.037 1.093 2.056 1.751 3.022 0.56 0.827 1.17 1.615 1.855 2.341 0.047 0.080 0.116 0.139 0.178 0.204 0.039 0.041 0.092 0.074 0.086 0.142-0.065 0.086-0.157 0.151-0.231 0.225-1.452 1.455-2.898 2.913-4.359 4.356-0.646 0.637-1.295 1.274-1.938 1.914-0.027 0.036-0.059 0.077-0.113 0.086z"></path>
<path fill="#3f284f" style="fill: var(--color2, #3f284f)" d="M19.704 12.444c0.222-0.225 0.444-0.453 0.67-0.679 0.015-0.015 0.041-0.021 0.065-0.030 0.080 0.006 0.116 0.071 0.157 0.121 0.681 0.827 1.040 1.778 1.111 2.844 0.015 0.222 0.015 0.444 0.027 0.664 0.012 0.193 0.148 0.359 0.32 0.403 0.184 0.047 0.361-0.024 0.477-0.19 0.050-0.071 0.068-0.151 0.068-0.237 0.030-1.028-0.157-2.012-0.607-2.942-0.196-0.406-0.441-0.779-0.738-1.123-0.044-0.050-0.104-0.095-0.095-0.175-0.027-0.059-0.024-0.104 0.030-0.154 0.228-0.21 0.45-0.424 0.673-0.637 0.083 0.006 0.127 0.074 0.175 0.127 0.921 1.055 1.481 2.284 1.745 3.656 0.133 0.684 0.207 1.375 0.204 2.071-0.003 0.293 0.169 0.492 0.415 0.504 0.27 0.012 0.468-0.178 0.48-0.468 0.012-0.228-0.021-0.453-0.036-0.679-0.039-0.51-0.095-1.019-0.193-1.526-0.279-1.446-0.836-2.761-1.772-3.908-0.068-0.083-0.151-0.157-0.19-0.261 0.071-0.095 0.13-0.018 0.181 0.021 0.406 0.299 0.806 0.601 1.209 0.904 2.163 1.624 4.329 3.244 6.492 4.868 0.056 0.041 0.113 0.080 0.151 0.142 0.009 0.545 0.003 1.090-0.047 1.636-0.080 0.856-0.231 1.701-0.456 2.53-0.302 1.114-0.741 2.175-1.298 3.191-0.45 0.818-0.972 1.585-1.564 2.302-0.581 0.702-1.227 1.345-1.932 1.929-0.99 0.821-2.068 1.502-3.233 2.041-1.013 0.468-2.065 0.815-3.161 1.040-0.48 0.098-0.966 0.166-1.449 0.231-0.11 0.015-0.222 0.015-0.335 0.024-0.071-0.024-0.089-0.089-0.116-0.145-0.359-0.785-0.72-1.57-1.079-2.356-0.341-0.75-0.681-1.499-1.025-2.249-0.347-0.753-0.69-1.508-1.037-2.261s-0.687-1.508-1.034-2.261c-0.196-0.427-0.382-0.856-0.587-1.277-0.027-0.053-0.098-0.113-0.021-0.181 0.098 0.003 0.16 0.074 0.222 0.133 0.439 0.418 0.892 0.821 1.369 1.2 0.696 0.554 1.431 1.055 2.193 1.517 0.975 0.593 1.988 1.117 3.016 1.612 0.516 0.249 1.052 0.453 1.597 0.628 0.436 0.139 0.859 0.071 1.268-0.113 0.332-0.148 0.622-0.356 0.886-0.61 0.444-0.433 0.844-0.898 1.15-1.443 0.163-0.287 0.243-0.593 0.207-0.924-0.033-0.296-0.175-0.536-0.397-0.723-0.699-0.578-1.39-1.173-2.16-1.659-0.308-0.196-0.616-0.394-0.939-0.566-0.35-0.184-0.711-0.243-1.102-0.136-0.299 0.083-0.513 0.267-0.696 0.498-0.175 0.219-0.344 0.444-0.524 0.661-0.299 0.359-0.687 0.456-1.12 0.35-0.652-0.16-1.256-0.441-1.831-0.785-0.548-0.329-1.046-0.726-1.49-1.185-0.044-0.044-0.119-0.080-0.098-0.166 0.006-0.062 0.053-0.092 0.092-0.13 1.636-1.627 3.271-3.253 4.907-4.88 0.039-0.039 0.071-0.083 0.13-0.092 0.074 0 0.095 0.065 0.124 0.113 0.231 0.37 0.32 0.779 0.356 1.206 0.006 0.080 0.006 0.157 0.027 0.234 0.068 0.24 0.267 0.373 0.501 0.332 0.21-0.036 0.364-0.231 0.353-0.462-0.039-0.72-0.19-1.404-0.64-1.994-0.027-0.033-0.062-0.071-0.044-0.127z"></path>
<path fill="#5f3e77" style="fill: var(--color3, #5f3e77)" d="M12.364 19.964c-0.044 0.041-0.003 0.071 0.012 0.104 0.468 1.016 0.936 2.030 1.401 3.046 0.427 0.927 0.847 1.852 1.271 2.779 0.477 1.043 0.954 2.086 1.431 3.129 0.255 0.554 0.51 1.108 0.764 1.665-0.444 0.021-0.886 0.041-1.33 0.039-2.613-0.018-5.049-0.687-7.31-1.997-1.046-0.604-1.997-1.339-2.865-2.181-0.039-0.039-0.074-0.077-0.113-0.119 0.041-0.047 0.083-0.098 0.127-0.142 2.13-2.092 4.237-4.21 6.35-6.32 0.050-0.050 0.101-0.095 0.166-0.121 0.074 0.006 0.113 0.041 0.095 0.119z"></path>
<path fill="#5f3e77" style="fill: var(--color3, #5f3e77)" d="M30.72 15.763c-0.279-0.169-0.524-0.379-0.782-0.572-1.295-0.966-2.587-1.938-3.879-2.907-1.076-0.806-2.154-1.615-3.23-2.424-0.041-0.030-0.077-0.062-0.13-0.056-0.071-0.012-0.136-0.030-0.121-0.124-0.044-0.086 0.024-0.124 0.071-0.172 1.081-1.081 2.166-2.166 3.247-3.247 0.196-0.196 0.394-0.385 0.593-0.578 0.708 0.699 1.324 1.476 1.864 2.308 1.043 1.606 1.751 3.348 2.11 5.23 0.151 0.785 0.237 1.576 0.261 2.376 0.003 0.059 0 0.113-0.003 0.166z"></path>
<path fill="#dcdcdc" style="fill: var(--color4, #dcdcdc)" d="M12.364 19.964c-0.003-0.062-0.047-0.089-0.092-0.119-0.086-0.113-0.216-0.187-0.279-0.32 0.101-0.024 0.136 0.062 0.187 0.116 0.080 0.086 0.133 0.095 0.228 0.009 0.456-0.406 0.868-0.859 1.307-1.283 0.059-0.059 0.092-0.116 0.021-0.19-0.027-0.030-0.050-0.065-0.018-0.107 0.077 0.039 0.116 0.119 0.178 0.172 0.708 0.779 1.55 1.369 2.516 1.787 0.281 0.121 0.569 0.225 0.865 0.305 0.45 0.124 0.841 0.027 1.144-0.341 0.163-0.199 0.329-0.394 0.477-0.604 0.516-0.744 1.369-0.714 1.932-0.394 0.978 0.554 1.881 1.215 2.735 1.944 0.083 0.071 0.169 0.139 0.252 0.207 0.504 0.421 0.649 0.981 0.353 1.567-0.43 0.85-1.025 1.57-1.834 2.089-0.492 0.317-1.034 0.462-1.612 0.276-0.61-0.196-1.206-0.439-1.781-0.72-1.407-0.687-2.782-1.431-4.068-2.329-0.815-0.569-1.582-1.197-2.296-1.887-0.068-0.062-0.142-0.119-0.213-0.178z"></path>
<path fill="#fefefe" style="fill: var(--color5, #fefefe)" d="M13.719 18.074c0 0.006 0 0.012 0 0.015 0.116 0.207 0.116 0.207-0.068 0.391-0.332 0.332-0.661 0.664-0.993 0.993-0.098 0.098-0.204 0.184-0.305 0.279-0.047 0.044-0.080 0.036-0.124-0.006-0.080-0.071-0.136-0.169-0.237-0.216-0.4-0.391-0.75-0.827-1.090-1.268-1.363-1.772-2.415-3.724-3.31-5.763-0.16-0.361-0.29-0.735-0.394-1.114-0.151-0.554 0.024-1.052 0.302-1.523 0.311-0.521 0.756-0.921 1.224-1.295 0.302-0.24 0.613-0.468 0.981-0.601 0.519-0.19 1.040-0.053 1.387 0.376 0.459 0.566 0.936 1.123 1.348 1.727 0.311 0.456 0.613 0.921 0.865 1.413 0.249 0.495 0.237 0.99-0.050 1.47-0.133 0.222-0.359 0.35-0.548 0.513-0.148 0.13-0.314 0.24-0.459 0.37-0.329 0.287-0.453 0.661-0.323 1.070 0.341 1.076 0.88 2.044 1.591 2.921 0.068 0.083 0.136 0.166 0.204 0.249z"></path>
<path fill="#fefefe" style="fill: var(--color5, #fefefe)" d="M21.481 9.926c-0.456-0.409-0.942-0.779-1.479-1.081-0.91-0.513-1.887-0.818-2.924-0.942-0.373-0.044-0.747-0.062-1.123-0.080-0.27-0.012-0.468-0.219-0.462-0.477 0.003-0.255 0.216-0.468 0.477-0.468 2.166 0.021 4.119 0.64 5.796 2.044 0.243 0.201 0.477 0.412 0.69 0.649 0.059 0.065 0.056 0.127-0.009 0.193-0.148 0.148-0.299 0.296-0.447 0.447-0.077 0.077-0.145 0.080-0.225 0-0.092-0.098-0.181-0.201-0.293-0.284z"></path>
<path fill="#dcdcdc" style="fill: var(--color4, #dcdcdc)" d="M21.481 9.926c0.13 0.041 0.196 0.157 0.281 0.246 0.083 0.083 0.139 0.098 0.225 0.006 0.136-0.148 0.279-0.287 0.424-0.427 0.059-0.056 0.071-0.11 0.041-0.178 0.062 0.012 0.059 0.095 0.119 0.113 0.024 0.056 0.080 0.083 0.121 0.124 0.293 0.356 0.581 0.72 0.824 1.114 0.581 0.945 0.954 1.964 1.164 3.052 0.145 0.744 0.21 1.493 0.222 2.249 0.003 0.204-0.095 0.361-0.281 0.45-0.169 0.080-0.338 0.059-0.489-0.053-0.136-0.104-0.19-0.249-0.193-0.415-0.003-0.533-0.039-1.064-0.116-1.594-0.24-1.624-0.833-3.087-1.97-4.299-0.121-0.13-0.246-0.261-0.373-0.388z"></path>
<path fill="#fefefe" style="fill: var(--color5, #fefefe)" d="M20.030 11.319c-0.498-0.415-1.055-0.726-1.671-0.927-0.527-0.172-1.073-0.264-1.624-0.314-0.308-0.027-0.486-0.216-0.474-0.51 0.012-0.27 0.228-0.459 0.53-0.436 1.357 0.104 2.616 0.477 3.701 1.339 0.207 0.166 0.412 0.338 0.578 0.548 0.036 0.062 0.009 0.113-0.036 0.157-0.151 0.154-0.305 0.308-0.459 0.459-0.074 0.074-0.142 0.068-0.216-0.006-0.107-0.104-0.204-0.222-0.329-0.311z"></path>
<path fill="#dcdcdc" style="fill: var(--color4, #dcdcdc)" d="M20.030 11.319c0.142 0.050 0.219 0.178 0.317 0.279 0.089 0.092 0.145 0.086 0.228-0.003 0.133-0.145 0.276-0.281 0.418-0.421 0.044-0.041 0.083-0.083 0.077-0.151 0.039 0.018 0.041 0.077 0.089 0.083 0.673 0.753 1.114 1.621 1.33 2.604 0.119 0.536 0.166 1.081 0.151 1.633-0.009 0.293-0.21 0.489-0.486 0.483-0.273-0.006-0.468-0.21-0.465-0.507 0.006-0.687-0.074-1.357-0.305-2.009-0.21-0.59-0.53-1.111-0.945-1.576-0.136-0.136-0.273-0.276-0.409-0.415z"></path>
<path fill="#fefefe" style="fill: var(--color5, #fefefe)" d="M18.987 13.070c-0.394-0.439-0.91-0.604-1.479-0.655-0.077-0.006-0.157-0.012-0.234-0.030-0.234-0.050-0.379-0.258-0.359-0.507 0.018-0.228 0.204-0.424 0.439-0.418 0.836 0.021 1.597 0.24 2.207 0.85 0.041 0.041 0.074 0.092 0.113 0.136 0.041 0.056-0.003 0.092-0.036 0.124-0.16 0.166-0.323 0.329-0.489 0.489-0.053 0.053-0.107 0.074-0.163 0.009z"></path>
<path fill="#dcdcdc" style="fill: var(--color4, #dcdcdc)" d="M18.987 13.070c0.041 0.012 0.080 0.030 0.121-0.012 0.181-0.187 0.367-0.37 0.548-0.554 0.012-0.012 0.012-0.036 0.018-0.053 0.009 0 0.021-0.003 0.030-0.003 0.495 0.619 0.684 1.342 0.729 2.119 0.015 0.249-0.163 0.48-0.394 0.516-0.267 0.039-0.501-0.113-0.545-0.379-0.047-0.287-0.050-0.581-0.133-0.859-0.074-0.246-0.163-0.486-0.332-0.687-0.015-0.033-0.030-0.059-0.041-0.086z"></path>
</symbol>
<symbol id="icon-phone" viewBox="0 0 32 32">
<path fill="#7fc35c" style="fill: var(--color1, #7fc35c)" d="M15.858 12.801c0 0.26 0.206 0.472 0.466 0.484 0.594 0.029 1.18 0.268 1.633 0.721s0.692 1.038 0.721 1.633c0.013 0.26 0.224 0.466 0.484 0.466h0.003c0.277 0 0.498-0.232 0.484-0.509-0.040-0.828-0.375-1.645-1.006-2.276s-1.448-0.967-2.277-1.007c-0.277-0.013-0.509 0.207-0.509 0.484z"></path>
<path fill="#7fc35c" style="fill: var(--color1, #7fc35c)" d="M16.465 10.96c0 0.262 0.209 0.475 0.471 0.484 0.908 0.031 1.807 0.392 2.499 1.084s1.053 1.59 1.084 2.498c0.009 0.262 0.222 0.471 0.484 0.471v0c0.274 0 0.494-0.227 0.485-0.5-0.038-1.147-0.493-2.282-1.367-3.155s-2.009-1.329-3.156-1.367c-0.273-0.009-0.5 0.211-0.5 0.485z"></path>
<path fill="#7fc35c" style="fill: var(--color1, #7fc35c)" d="M16.991 9.176c0 0.261 0.207 0.478 0.468 0.484 1.232 0.031 2.454 0.514 3.392 1.452s1.421 2.16 1.452 3.392c0.007 0.261 0.223 0.467 0.484 0.467h0.001c0.274 0 0.492-0.227 0.485-0.502-0.039-1.469-0.617-2.925-1.736-4.044s-2.576-1.697-4.045-1.736c-0.274-0.007-0.502 0.21-0.502 0.484z"></path>
<path fill="#7fc35c" style="fill: var(--color1, #7fc35c)" d="M11.278 11.393c-0 0-0 0-0 0l-0.005 0.001zM12.199 19.744c0.183 0.174 3.487 3.269 5.757 2.732 2.237-0.53 2.664-1.667 2.681-1.718 0.007-0.028 0.065-0.278-0.001-0.587-0.091-0.422-0.369-0.767-0.826-1.023-0.597-0.335-1.667-0.797-2.116-0.123-0.411 0.616-0.921 0.985-1.478 1.068-0.549 0.082-1.115-0.113-1.683-0.579-0.676-0.555-1.426-1.308-2.007-2.016-0.466-0.568-0.661-1.134-0.579-1.683 0.083-0.556 0.452-1.067 1.068-1.478 0.674-0.449 0.212-1.519-0.123-2.116-0.257-0.458-0.601-0.736-1.023-0.826-0.302-0.065-0.547-0.011-0.585-0.002-0.095 0.033-1.194 0.462-1.72 2.682-0.204 0.862 0.112 2.027 0.914 3.37 0.665 1.113 1.475 2.031 1.722 2.3zM17.412 23.31c-2.605 0-5.62-2.883-5.759-3.017l-0.016-0.017c-0.318-0.347-1.133-1.279-1.824-2.436-0.921-1.541-1.258-2.868-1.003-3.945 0.651-2.747 2.19-3.227 2.255-3.246 0.546-0.158 1.769-0.112 2.501 1.193 0.402 0.717 0.593 1.352 0.567 1.888-0.026 0.535-0.264 0.967-0.69 1.251-0.299 0.199-0.669 0.526-0.732 0.948-0.048 0.324 0.090 0.687 0.412 1.079 0.551 0.671 1.261 1.384 1.899 1.909 0.392 0.322 0.755 0.46 1.079 0.412 0.422-0.063 0.748-0.433 0.948-0.732 0.284-0.425 0.716-0.664 1.251-0.69 0.536-0.026 1.171 0.165 1.888 0.567 1.304 0.732 1.351 1.955 1.193 2.5-0.019 0.066-0.499 1.606-3.247 2.256-0.235 0.056-0.476 0.081-0.721 0.081z"></path>
</symbol>
<symbol id="icon-infinity" viewBox="0 0 166 32">
<path d="M166.125 19.303h-7.246c-0.75-0.854-1.538-1.297-2.343-1.316-1.217-0.029-2.092 0.903-2.422 1.254-0.023 0.025-0.043 0.046-0.059 0.062h-3.031c-0.093 0-0.171 0.071-0.18 0.164l-0.731 7.61-1.688-26.426c-0.006-0.095-0.085-0.169-0.18-0.169h-0.001c-0.095 0-0.174 0.073-0.18 0.168l-1.379 19.117-0.162-0.572c-0.020-0.071-0.081-0.122-0.154-0.131l-0.962-0.108-1.036-2.9c-0.025-0.070-0.091-0.118-0.165-0.12-0.081-0.002-0.143 0.042-0.172 0.11l-1.281 3.019-3.714 0.057c-0.785-0.908-1.634-1.36-2.514-1.334-1.287 0.033-2.224 1.055-2.459 1.337l-2.632 0.058c-0.091 0.002-0.167 0.072-0.176 0.163l-0.792 7.817-1.754-26.993c-0.006-0.095-0.085-0.169-0.18-0.169-0 0-0 0-0 0-0.096 0-0.174 0.075-0.18 0.17l-1.207 19.76-0.21-0.624c-0.025-0.074-0.094-0.123-0.171-0.123h-1.007l-1.033-3.123c-0.024-0.074-0.093-0.123-0.17-0.124-0.074 0.002-0.147 0.048-0.172 0.121l-1.095 3.126h-8.554c0.002-0.224-0.002-0.449-0.013-0.673-0.201-4.477-2.766-8.277-7.038-10.426-9.147-4.601-17.218 3.314-25.021 11.025-5.948-5.962-12.105-12.073-19.371-12.283-4.015-0.115-7.89 1.853-10.36 5.268-1.541 2.13-2.346 4.583-2.377 7.091l-7.070 0.058c-0.745-0.848-1.528-1.286-2.328-1.301-1.217-0.027-2.105 0.936-2.437 1.297-0.023 0.024-0.041 0.045-0.057 0.062l-3.025-0.118c-0.097 0.001-0.178 0.068-0.187 0.164l-0.733 7.818-1.686-26.394c-0.006-0.095-0.085-0.169-0.18-0.169h-0.001c-0.095 0-0.174 0.073-0.18 0.168l-1.379 19.117-0.162-0.572c-0.020-0.071-0.081-0.122-0.154-0.131l-0.962-0.108-1.036-2.9c-0.025-0.070-0.091-0.118-0.165-0.12-0.073 0.001-0.143 0.041-0.172 0.11l-1.281 3.019-3.715 0.057c-0.785-0.908-1.628-1.359-2.514-1.334-1.287 0.033-2.224 1.055-2.459 1.337l-2.633 0.058c-0.091 0.002-0.167 0.072-0.176 0.163l-0.792 7.817-1.754-26.993c-0.006-0.095-0.085-0.169-0.181-0.169h-0c-0.095 0-0.174 0.075-0.18 0.17l-1.207 19.761-0.21-0.625c-0.025-0.074-0.094-0.123-0.171-0.123h-1.007l-1.033-3.123c-0.024-0.074-0.093-0.123-0.17-0.124-0.078-0.004-0.147 0.048-0.172 0.121l-1.095 3.126h-7.706c-0.1 0-0.181 0.081-0.181 0.181s0.081 0.181 0.181 0.181h7.835c0.077 0 0.145-0.049 0.171-0.121l0.962-2.746 0.907 2.743c0.024 0.074 0.094 0.124 0.172 0.124h1.007l0.464 1.38c0.028 0.082 0.11 0.134 0.195 0.122s0.152-0.082 0.157-0.168l1.089-17.822 1.709 26.301c0.006 0.094 0.083 0.167 0.177 0.169 0.001 0 0.002 0 0.003 0 0.093 0 0.171-0.070 0.18-0.163l0.995-9.823 2.557-0.057c0.055-0.001 0.107-0.028 0.14-0.072 0.009-0.012 0.951-1.232 2.238-1.264 0.792-0.020 1.556 0.408 2.281 1.271 0.034 0.041 0.085 0.065 0.138 0.065 0.001 0 0.002 0 0.003-0l3.917-0.060c0.072-0.001 0.136-0.044 0.164-0.11l1.146-2.7 0.918 2.57c0.023 0.065 0.081 0.111 0.15 0.119l0.953 0.107 0.409 1.446c0.024 0.085 0.106 0.142 0.192 0.131 0.087-0.009 0.156-0.079 0.162-0.167l1.262-17.492 1.663 26.029c0.006 0.094 0.083 0.168 0.178 0.169 0.001 0 0.002 0 0.003 0 0.093 0 0.171-0.071 0.18-0.164l0.932-9.932 2.925 0.114c0.008 0 0.015 0 0.023-0.001 0.084-0.007 0.124-0.051 0.244-0.181 0.299-0.324 1.087-1.18 2.129-1.18 0.012 0 0.023 0 0.035 0 0.712 0.013 1.424 0.43 2.115 1.238 0.035 0.041 0.083 0.058 0.139 0.063l7.151-0.059c0.023 1.367 0.276 2.746 0.764 4.095 1.065 2.944 3.191 5.373 5.986 6.839 2.869 1.505 6.203 1.843 9.385 0.951 5.55-1.554 10.847-6.75 15.97-11.812 3.862 3.871 7.857 7.858 12.133 10.217 2.613 1.442 5.216 2.164 7.675 2.164 2.209-0 4.303-0.583 6.185-1.752 3.611-2.243 5.921-6.364 6.073-10.703h8.69c0.077 0 0.145-0.049 0.171-0.121l0.962-2.746 0.907 2.743c0.024 0.074 0.094 0.124 0.172 0.124h1.007l0.464 1.38c0.028 0.082 0.11 0.132 0.195 0.122 0.086-0.011 0.151-0.082 0.157-0.168l1.089-17.822 1.709 26.301c0.006 0.094 0.083 0.167 0.177 0.169 0.001 0 0.002 0 0.003 0 0.093 0 0.171-0.070 0.18-0.163l0.995-9.823 2.557-0.057c0.055-0.001 0.107-0.028 0.14-0.072 0.009-0.012 0.951-1.232 2.238-1.264 0.783-0.021 1.556 0.408 2.281 1.271 0.034 0.041 0.085 0.065 0.139 0.065 0.001 0 0.002 0 0.003-0l3.917-0.060c0.072-0.001 0.136-0.044 0.164-0.11l1.146-2.7 0.918 2.57c0.023 0.065 0.082 0.111 0.15 0.119l0.953 0.107 0.409 1.447c0.024 0.085 0.107 0.141 0.192 0.131 0.087-0.009 0.156-0.079 0.162-0.167l1.262-17.492 1.663 26.029c0.006 0.094 0.083 0.168 0.178 0.169 0.001 0 0.002 0 0.003 0 0.093 0 0.171-0.071 0.18-0.164l0.932-9.698h2.932c0.005 0 0.010-0 0.016-0.001 0.083-0.007 0.123-0.049 0.241-0.176 0.3-0.319 1.096-1.172 2.15-1.14 0.718 0.017 1.435 0.439 2.131 1.253 0.034 0.040 0.085 0.063 0.137 0.063h7.329c0.1 0 0.181-0.081 0.181-0.181s-0.081-0.181-0.181-0.181zM66.589 31.083c-6.315 1.768-12.735-1.485-14.934-7.566-1.387-3.834-0.816-7.921 1.566-11.213 2.4-3.317 6.16-5.227 10.057-5.118 7.122 0.206 13.226 6.265 19.124 12.176-5.090 5.030-10.352 10.191-15.812 11.72zM108.459 29.941c-3.861 2.398-8.654 2.248-13.495-0.422-4.231-2.334-8.206-6.301-12.050-10.155 3.852-3.807 7.834-7.726 11.882-10.060 4.612-2.658 8.654-2.944 12.721-0.898 4.213 2.119 6.642 5.713 6.839 10.119 0.012 0.269 0.015 0.537 0.010 0.805-0.002 0.011-0.003 0.022-0.003 0.033 0 0.009 0.001 0.018 0.002 0.026-0.101 4.273-2.357 8.346-5.907 10.551z"></path>
</symbol>
<symbol id="icon-spritz" viewBox="0 0 27 32">
<path fill="#bec8b7" style="fill: var(--color1, #bec8b7)" d="M26.583 20.091s0.314 0.213 0.087 0.802c0 0-0.109 0.29-0.172 0.385 0 0-0.369 0.644-0.075 0.848 0 0 0.5 0.334 0.7-0.241 0 0 0.144-0.601 0.020-1.075-0.029-0.155-0.202-0.727-0.559-0.718z"></path>
<path fill="#f5d19f" style="fill: var(--color2, #f5d19f)" d="M12.824 11.009c0 0.13-0.105 0.235-0.235 0.235s-0.235-0.105-0.235-0.235v0-0.905c0-0.13 0.105-0.235 0.235-0.235s0.235 0.105 0.235 0.235v0 0.905z"></path>
<path fill="#f5d19f" style="fill: var(--color2, #f5d19f)" d="M11.4 19.645s0.579 2.366 0.604 2.499 0.591-0.036 0.64-0.241l0.060-2.209c0 0-1.086-0.205-1.304-0.048zM12.946 19.706l-0.024 2.052s0.278 0.145 0.664 0.024l0.579-2.112-1.219 0.036z"></path>
<path fill="#fff" style="fill: var(--color3, #fff)" d="M12.098 30.969l0.057 0.543h0.163s0.453-8.722 0.326-9.609c0 0-0.392 0.32-0.64 0.175 0 0 0.803 8.021-0.917 9.886 0.806-0.217 0.725-0.371 1.012-0.995zM12.921 21.758s0.483 0.115 0.664 0.024c0 0-0.688 8.583 0.905 9.615 0 0-0.869-0.38-1.032-0.905l-0.018 0.453h-0.235l-0.284-9.186z"></path>
<path fill="#f5d19f" style="fill: var(--color2, #f5d19f)" d="M11.954 10.719s-2.508 2.562-2.888 3.169c-0.229 0.357-0.568 0.515-0.12 1.785 0.091 0.311 0.719 1.476 0.719 1.476s0.425 0.776 0.969 0.331c0.077-0.264 0.138-0.231-0.095-0.299 0 0-0.373-0.007-0.578-0.079-0.538-0.679-1.004-1.918-0.885-2.715 0.448-0.732 1.41-1.789 3.068-3.292 0.207-0.152-0.019-0.375-0.191-0.375zM12.915 10.755l3.127 2.84c1.019 0.759 2.326 0.891 2.901 1.288 0 0 0.237 1.411 0.436 1.465 0 0-0.453-0.054-0.453-0.326l-0.099-0.542s-0.203-0.155-0.058-0.228c-0.191-0.238-2.076-0.686-2.981-1.313l-3.039-2.858z"></path>
<path fill="#fff" style="fill: var(--color3, #fff)" d="M9.928 21.165s2.7-5.106 2.010-10.485c0.185-0.183 0.271-0.064 0.307-0.038 0.102 0.429 0.428 0.816 0.657 0.016 0.043-0.045 0.081-0.066 0.141 0.014 0 0-0.039 0.645 0.144 1.376 0.069 0.275 0.137 0.47 0.245 0.739 0.064 0.269-0.26 0.496-0.365 0.315 0 0 0.097 5.778 2.245 6.883 0 0-0.869 1.522-2.97 0.982 0 0-0.652-0.258-1.497 0.123 0 0-0.435 0.344-0.917 0.074z"></path>
<path fill="#fff" style="fill: var(--color3, #fff)" d="M7.079 14.103c-0.563 1.953-1.254 3.468-1.542 3.385s-0.065-1.734 0.498-3.686 1.254-3.469 1.542-3.385 0.065 1.734-0.498 3.686z"></path>
<path fill="#fff" style="fill: var(--color3, #fff)" d="M7.107 12.578c-0.004 0.024-0.002 0.036-0.007 0.061-0.064 0.371-0.18 0.876-0.333 1.426-0.131 0.471-0.265 0.858-0.387 1.191l3.448 1.065c0.426-0.73 0.703-1.61 0.819-2.65z"></path>
<path fill="#000" style="fill: var(--color4, #000)" d="M7.527 12.214c-0.181 1.275-0.655 2.483-1.055 3.705 3.737 1.154 7.473 2.308 11.21 3.461 0.348-0.38 0.586-0.868 0.98-1.2 0.423 0.037 0.908 0.376 1.317 0.183 0.224-0.308 0.203-0.839-0.22-0.944-0.367-0.103-1.002-0.213-0.928-0.729-0.028-0.365 0.118-0.885-0.231-1.134-3.437-1.017-6.87-2.136-10.305-3.194-0.192 0.004-0.715-0.349-0.769-0.149z"></path>
<path fill="#bec8b7" style="fill: var(--color1, #bec8b7)" d="M10.542 16.845l7.042 2.196 0.926-1.196 1.224 0.3 0.103-0.382-1.236-0.496-0.029-0.423h-8.030z"></path>
<path fill="#fff" style="fill: var(--color3, #fff)" d="M7.079 14.077c-0.563 1.953-1.254 3.468-1.542 3.385s-0.065-1.734 0.498-3.686 1.254-3.469 1.542-3.385 0.065 1.734-0.498 3.686z"></path>
<path fill="#fff" style="fill: var(--color3, #fff)" d="M1.543 10.859l-0.817 2.65 5.654 1.745c0.122-0.333 0.256-0.719 0.387-1.191 0.153-0.55 0.269-1.055 0.333-1.426 0.004-0.025 0.003-0.037 0.007-0.061l-0.26-0.081z"></path>
<path fill="#000" style="fill: var(--color4, #000)" d="M26.712 20.192l-6.658-2.055 0.039-0.126 6.406 1.977c0.077 0.117 0.144 0.152 0.213 0.204z"></path>
<path fill="#fff" style="fill: var(--color3, #fff)" d="M26.536 21.547s-0.158 0.231-0.118 0.321c0 0 0.122 0.177 0.19 0.104 0 0-0.045-0.235 0.018-0.33 0 0-0.086-0.032-0.091-0.095z"></path>
<path fill="#7e4008" style="fill: var(--color5, #7e4008)" d="M14.721 8.687s1.28 1.545 1.762-1.086c0 0-1.014 1.593-1.231 0.579l-0.531 0.459"></path>
<path fill="#f5d19f" style="fill: var(--color2, #f5d19f)" d="M16.035 6.078c0 2.347-1.373 4.249-3.066 4.249s-3.066-1.902-3.066-4.249 1.373-4.249 3.066-4.249 3.066 1.902 3.066 4.249z"></path>
<path fill="#7e4008" style="fill: var(--color5, #7e4008)" d="M8.527 8.733c0.182 0.301 0.457 0.745 0.869 0.639 0.329-0.136 0.587-0.546 0.268-0.971-1.121-1.059-1.869-2.629-1.614-4.193 0.108-0.602 0.282-1.223 0.651-1.718 0.781-0.915 1.805-1.766 3.046-1.891 1.071-0.108 2.037 0.562 2.671 1.371 0.315 0.39 0.583 0.817 0.82 1.258-0.463-0.432-0.844-0.736-1.741-0.666s-1.796 0.772-2.396 1.533c-0.314 0.504-0.481 1.114-0.448 1.71 0.016 0.498 0.259 0.941 0.53 1.344 0.391 0.683 0.542 1.62 0.012 2.274-0.326 0.412-0.858 0.635-1.371 0.693-0.552 0.065-1.015-0.38-1.164-0.882-0.060-0.163-0.102-0.331-0.134-0.502z"></path>
<path fill="#fff" style="fill: var(--color3, #fff)" d="M8.092 4.001s1.038-1.328 2.1-1.69l-0.435-1.304s3.114-1.835 5.529-0.459l-0.266 2.124s-1.497-1.111-4.297 0.869l-0.41-0.917s-1.159 0.314-2.294 1.787l0.072-0.41z"></path>
<path fill="#520" style="fill: var(--color6, #520)" d="M12.671 5.991s-0.354-0.578-1.313 0.301c-0.008-0.011 0.647-0.492 1.313-0.301zM12.607 6.536c0 0.2-0.114 0.362-0.254 0.362s-0.254-0.162-0.254-0.362 0.114-0.362 0.254-0.362 0.254 0.162 0.254 0.362zM14.46 5.906s0.226-0.639 1.347 0.021c0.003-0.011-0.754-0.353-1.347-0.021zM15.036 6.432c0 0.164-0.092 0.297-0.206 0.297s-0.207-0.133-0.207-0.297 0.092-0.297 0.206-0.297 0.207 0.133 0.207 0.297z"></path>
<path fill="#bf0d0b" style="fill: var(--color7, #bf0d0b)" d="M13.178 9.264c0.149 0.223 0.661 0.546 1.088 0.034-0.201 0.061-0.591 0.283-1.088-0.034z"></path>
<path fill="#bf0d0b" style="fill: var(--color7, #bf0d0b)" d="M13.18 9.238c-0.005 0 0.419-0.288 0.615-0.078 0 0 0.169-0.254 0.448 0.102 0 0-0.63 0.098-1.062-0.024z"></path>
<path fill="#f64c3f" style="fill: var(--color8, #f64c3f)" d="M12.997 0.447c-0.005 0.073-0.002 0.156 0 0.24s0.003 0.168 0.002 0.249c-0.154 0.012-0.314 0.033-0.489 0.049 0 0.015 0.001 0.031 0.002 0.046 0.005 0.133 0.013 0.268 0.021 0.405 0.164-0.019 0.319-0.040 0.469-0.054 0.003 0.166 0.008 0.333 0.016 0.507 0.136-0.011 0.271-0.013 0.404-0.015-0.019-0.18-0.020-0.348-0.018-0.512 0.146-0.002 0.293-0.001 0.457-0.009 0.015-0.131 0.031-0.257 0.039-0.379 0.001-0.014 0.002-0.028 0.003-0.043-0.182 0.001-0.337-0.009-0.489-0.011 0.002-0.079 0.002-0.162 0.001-0.244s-0.004-0.163-0.001-0.235c-0.052-0.003-0.114-0.004-0.175-0.004-0.085 0-0.169 0.003-0.252 0.008l0.011-0.001z"></path>
<path fill="#fff" style="fill: var(--color3, #fff)" d="M1.204 12.315c-0.453 1.571-0.953 2.806-1.117 2.759s0.072-1.359 0.525-2.93 0.953-2.806 1.116-2.759c0.163 0.047-0.072 1.359-0.525 2.93zM6.789 12.452l0.329 0.104c0.097-0.49 0.114-0.826 0.049-0.846s-0.209 0.276-0.378 0.742zM6.379 15.255l-0.28-0.086c-0.053 0.329-0.076 0.612-0.025 0.628s0.182-0.234 0.305-0.541z"></path>
</symbol>
</defs>
</svg>
